<svg xmlns="http://www.w3.org/2000/svg" viewBox="0 0 52 52"><path d="M44.5 20.232h-6v4h4c1.1 0 2 .9 2 2v10c0 1.1-.9 2-2 2h-4v4h6c2.2 0 4-1.8 4-4v-14c0-2.2-1.8-4-4-4zM32.5 4a5.964 5.964 0 0 0-3.667 1.258 5.996 5.996 0 0 0-7.72-2.762A6.482 6.482 0 0 0 16 0a6.5 6.5 0 0 0-6.356 5.144A4.964 4.964 0 0 0 8.5 5a5 5 0 0 0-5 5v8c0 1.1.9 2 2 2h1c1.1 0 2-.9 2-2v-1.596a3.945 3.945 0 0 0 2.068.596h1.967c1.275 0 2.402-.615 3.136-1.551A6 6 0 0 0 20.568 18c3.3 0 6-2.7 6-6h11.583a5.97 5.97 0 0 0 .349-2 6 6 0 0 0-6-6z" fill="#e6e6e6"/><path d="M26.568 12c0 3.3-2.7 6-6 6a6 6 0 0 1-4.897-2.551C14.937 16.385 13.81 17 12.535 17h-1.967a3.947 3.947 0 0 1-2.068-.596V47c0 2.75 2.25 5 5 5h20c2.75 0 5-2.25 5-5V12H26.568z" fill="#f4c44e"/><path d="M14.5 25c0-1.65-1.35-3-3-3s-3 1.35-3 3v21h6V25z" fill="#f9da49"/><path d="M20.5 25c0-1.65-1.35-3-3-3s-3 1.35-3 3v21h6V25z" fill="#eeaf4b"/><path d="M26.5 25c0-1.65-1.35-3-3-3s-3 1.35-3 3v21h6V25z" fill="#f9da49"/><path d="M32.5 25c0-1.65-1.35-3-3-3s-3 1.35-3 3v21h6V25z" fill="#eeaf4b"/><path d="M38.5 25c0-1.65-1.35-3-3-3s-3 1.35-3 3v21h6V25z" fill="#f9da49"/></svg>