<svg xmlns="http://www.w3.org/2000/svg" viewBox="0 0 512 512"><path d="M453.758 298.398c-1.367 12.328-11.609 21.672-23.836 21.758H327.18c-12.242-.055-22.508-9.414-23.875-21.75-2.258-20.469-4.516-38.586-6.758-56.641a5358.681 5358.681 0 0 1-3.375-27.43c-1.047-8.695 5.156-16.687 13.82-17.828a550.904 550.904 0 0 1 143.07 0c8.672 1.141 14.875 9.133 13.82 17.828-1.109 9.242-2.227 18.219-3.344 27.211-2.257 18.134-4.514 36.313-6.78 56.852z" fill="#53dcff"/><path d="M364.963 192.064a550.814 550.814 0 0 0-52.215 3.785l123.35 123.35a24.328 24.328 0 0 0 17.66-20.801c.596-5.405 1.192-10.632 1.787-15.752l-90.582-90.582z" fill="#b3f4ff"/><path d="M40 232.156L5.029 218.168A8.001 8.001 0 0 1 0 210.74v-10.584a8 8 0 0 1 8-8h40l-8 40zM472 232.156l34.971-13.988A8.001 8.001 0 0 0 512 210.74v-10.584a8 8 0 0 0-8-8h-40l8 40z" fill="#9f6459"/><path d="M208.703 298.398c-1.367 12.328-11.609 21.672-23.836 21.758H82.125c-12.242-.055-22.508-9.414-23.875-21.75-2.258-20.469-4.516-38.586-6.758-56.641a5358.681 5358.681 0 0 1-3.375-27.43c-1.047-8.695 5.156-16.687 13.82-17.828a550.904 550.904 0 0 1 143.07 0c8.672 1.141 14.875 9.133 13.82 17.828-1.109 9.242-2.227 18.219-3.344 27.211-2.257 18.134-4.514 36.313-6.78 56.852z" fill="#53dcff"/><path d="M452.14 180.648a566.347 566.347 0 0 0-147.227 0c-14.073 1.846-24.738 12.759-27.19 26.067-6.325-4.107-13.768-6.56-21.724-6.56-7.958 0-15.4 2.452-21.725 6.56-2.454-13.311-13.118-24.222-27.189-26.067a566.34 566.34 0 0 0-147.226 0c-17.32 2.273-29.719 18.242-27.633 35.594 1.125 9.352 2.258 18.414 3.383 27.492 2.242 17.992 4.484 36.039 6.734 56.43 2.266 20.422 19.336 35.891 39.742 35.992h102.852c20.352-.117 37.406-15.594 39.672-36 2.25-20.469 4.508-38.578 6.75-56.641.355-2.846.707-5.762 1.061-8.613.098-.262.266-.478.337-.754 2.727-10.594 12.281-17.992 23.242-17.992 10.945 0 20.5 7.383 23.234 17.953.066.256.243.441.332.685.358 2.887.714 5.841 1.074 8.721 2.242 18.062 4.5 36.172 6.75 56.648 2.266 20.422 19.336 35.891 39.75 35.992h102.852c20.352-.117 37.398-15.594 39.664-36 2.25-20.383 4.492-38.43 6.734-56.422 1.125-9.078 2.258-18.141 3.383-27.492 2.087-17.35-10.311-33.319-27.632-35.593zm-243.437 117.75c-1.367 12.328-11.609 21.672-23.836 21.758H82.125c-12.242-.055-22.508-9.414-23.875-21.75-2.258-20.469-4.516-38.586-6.758-56.641a5358.681 5358.681 0 0 1-3.375-27.43c-1.047-8.695 5.156-16.687 13.82-17.828a550.904 550.904 0 0 1 143.07 0c8.672 1.141 14.875 9.133 13.82 17.828-1.109 9.242-2.227 18.219-3.344 27.211-2.257 18.134-4.514 36.313-6.78 56.852zm255.18-84.062a5386.376 5386.376 0 0 1-3.375 27.43c-2.242 18.055-4.5 36.172-6.758 56.633-1.367 12.328-11.609 21.672-23.828 21.758H327.18c-12.25-.055-22.516-9.414-23.883-21.75-2.266-20.547-4.523-38.727-6.781-56.859-1.117-8.992-2.234-17.969-3.344-27.219-1.055-8.688 5.148-16.68 13.82-17.82a550.782 550.782 0 0 1 143.07 0c8.664 1.139 14.867 9.132 13.821 17.827z" fill="#5c546a"/><path d="M119.908 192.064a550.814 550.814 0 0 0-52.215 3.785l123.35 123.35a24.328 24.328 0 0 0 17.66-20.801c.596-5.405 1.192-10.632 1.787-15.752l-90.582-90.582z" fill="#b3f4ff"/><circle cx="172" cy="236.156" r="28" fill="#fff"/><circle cx="416" cy="240.156" r="24" fill="#fff"/><circle cx="420" cy="236.156" r="28" fill="#fff"/></svg>