<svg xmlns="http://www.w3.org/2000/svg" viewBox="0 0 502.164 502.164"><path d="M395.078 232.257h-288c-4.422 0-8 3.582-8 8v57.262c0 48.637 66.766 86.738 152 86.738s152-38.102 152-86.738v-57.262c0-4.418-3.578-8-8-8z" fill="#5d647f"/><path d="M251.328 232.257h-144.25c-4.422 0-8 3.582-8 8v57.262c0 48.637 66.766 86.738 152 86.738.084 0 .166-.007.25-.007V232.257z" fill="#5c546a"/><path d="M482.773 146.851L279.406 59.686c-18-7.711-38.672-7.707-56.687.02l-203.32 87.137C7.43 151.972 0 163.245 0 176.261c0 13.012 7.43 24.273 19.391 29.398l203.359 87.164c8.992 3.852 18.648 5.777 28.312 5.777 9.68 0 19.359-1.93 28.375-5.797l203.32-87.137c11.969-5.125 19.406-16.398 19.406-29.414.001-13.011-7.429-24.276-19.39-29.401z" fill="#527992"/><path d="M51.078 344.257c-4.422 0-8-3.582-8-8v-121.27a15.966 15.966 0 0 1 13.266-15.766l161.367-28.066a8 8 0 1 1 2.734 15.766L59.078 214.987v121.269a7.998 7.998 0 0 1-8 8.001z" fill="#5c546a"/><circle cx="51.078" cy="344.257" r="16" fill="#ff9600"/><path d="M219.078 168.257v16c0 8.836 14.327 16 32 16s32-7.164 32-16v-16h-64z" fill="#ff9600"/><ellipse cx="251.078" cy="168.257" rx="32" ry="16" fill="#ffd200"/><path d="M34.639 376.19l-5.758 63.342c-.426 4.685 3.263 8.724 7.967 8.724h30.479c4.704 0 8.393-4.039 7.967-8.724l-5.758-63.342c-.82-9.024-8.387-15.934-17.448-15.934h-.001c-9.061.001-16.627 6.91-17.448 15.934z" fill="#ffd200"/></svg>