<svg xmlns="http://www.w3.org/2000/svg" viewBox="0 0 512 512"><path fill="#ffe1b2" d="M32 132h448v312H32z"/><path fill="#ffb980" d="M32 396h448v48H32zM32 116h448v56H32z"/><path d="M192 188H80a8 8 0 0 0-8 8v240h128V196a8 8 0 0 0-8-8z" fill="#7e5c62"/><path d="M504 452H8c-4.422 0-8-3.578-8-8s3.578-8 8-8h496c4.422 0 8 3.578 8 8s-3.578 8-8 8zM176 340c-4.422 0-8-3.578-8-8v-16c0-4.422 3.578-8 8-8s8 3.578 8 8v16c0 4.422-3.578 8-8 8z" fill="#5c546a"/><path d="M40 156c-13.255 0-24-10.745-24-24V76c0-8.837 7.163-16 16-16h32v72c0 13.255-10.745 24-24 24z" fill="#ff4f19"/><path d="M88 156c-13.255 0-24-10.745-24-24V60h48v72c0 13.255-10.745 24-24 24z" fill="#e9001e"/><path d="M136 156c-13.255 0-24-10.745-24-24V60h48v72c0 13.255-10.745 24-24 24z" fill="#ff4f19"/><path d="M184 156c-13.255 0-24-10.745-24-24V60h48v72c0 13.255-10.745 24-24 24z" fill="#e9001e"/><path d="M232 156c-13.255 0-24-10.745-24-24V60h48v72c0 13.255-10.745 24-24 24z" fill="#ff4f19"/><path d="M280 156c-13.255 0-24-10.745-24-24V60h48v72c0 13.255-10.745 24-24 24z" fill="#e9001e"/><path d="M328 156c-13.255 0-24-10.745-24-24V60h48v72c0 13.255-10.745 24-24 24z" fill="#ff4f19"/><path d="M376 156c-13.255 0-24-10.745-24-24V60h48v72c0 13.255-10.745 24-24 24z" fill="#e9001e"/><path d="M424 156c-13.255 0-24-10.745-24-24V60h48v72c0 13.255-10.745 24-24 24z" fill="#ff4f19"/><path d="M472 156c-13.255 0-24-10.745-24-24V60h32c8.837 0 16 7.163 16 16v56c0 13.255-10.745 24-24 24z" fill="#e9001e"/><path d="M440 196H240a8 8 0 0 0-8 8v160a8 8 0 0 0 8 8h200a8 8 0 0 0 8-8V204a8 8 0 0 0-8-8z" fill="#53dcff"/><path d="M397.588 372H440a8 8 0 0 0 8-8v-9.47L289.47 196H232c-2.835 0-5.207 1.56-6.628 3.784L397.588 372z" fill="#b3f4ff"/><path fill="#fff" d="M334.059 196L448 309.941V276l-80-80z"/><path d="M440 380H240c-8.82 0-16-7.18-16-16V204c0-8.82 7.18-16 16-16h200c8.82 0 16 7.18 16 16v160c0 8.82-7.18 16-16 16zM240 204v160h200.016L440 204H240z" fill="#7e5c62"/><path d="M176 292H96a8 8 0 0 1-8-8v-72a8 8 0 0 1 8-8h80a8 8 0 0 1 8 8v72a8 8 0 0 1-8 8z" fill="#53dcff"/><path d="M136.099 204H96a8 8 0 0 0-8 8v11.784L156.216 292H176a8 8 0 0 0 8-8v-32.099L136.099 204z" fill="#b3f4ff"/></svg>