<svg xmlns="http://www.w3.org/2000/svg" viewBox="0 0 512 512"><path d="M184 98.664V79.109C184 66.367 194.367 56 207.109 56h97.781C317.633 56 328 66.367 328 79.109v19.555h32V79.109C360 48.719 335.277 24 304.89 24h-97.781C176.723 24 152 48.719 152 79.109v19.555h32z" fill="#7e5c62"/><path d="M472 96H40c-22.055 0-40 17.945-40 40v312c0 22.055 17.945 40 40 40h432c22.055 0 40-17.945 40-40V136c0-22.055-17.946-40-40-40z" fill="#9f6459"/><path d="M488 336H24c-13.234 0-24-10.766-24-24v136c0 22.055 17.945 40 40 40h432c22.055 0 40-17.945 40-40V312c0 13.234-10.766 24-24 24z" fill="#7e5c62"/><path d="M104 400c-8.837 0-16-7.163-16-16v-80c0-8.837 7.163-16 16-16s16 7.163 16 16v80c0 8.836-7.163 16-16 16z" fill="#ff9600"/><path d="M104 360c-8.837 0-16-7.163-16-16v-40c0-8.837 7.163-16 16-16s16 7.163 16 16v40c0 8.836-7.163 16-16 16z" fill="#ffd200"/><path d="M400 400c-8.837 0-16-7.163-16-16v-80c0-8.837 7.163-16 16-16s16 7.163 16 16v80c0 8.836-7.164 16-16 16z" fill="#ff9600"/><path d="M400 360c-8.837 0-16-7.163-16-16v-40c0-8.837 7.163-16 16-16s16 7.163 16 16v40c0 8.836-7.164 16-16 16zM304 312h-96a8 8 0 0 1 0-16h96a8 8 0 0 1 0 16z" fill="#ffd200"/></svg>