<svg xmlns="http://www.w3.org/2000/svg" viewBox="0 0 108.968 108.968"><g fill-rule="evenodd" clip-rule="evenodd"><path d="M75.253 9.469c2.172-1.014 7.664 4.576 9.875 13.609-6.658-3.964-1.187.089-.968 12.613.234 13.454-2.22 17.916-6.258 22.978-2.331-10.08-5.703 7.151-13.484 11.932-7.815 4.799-13.295 4.138-20.097.3-7.284-4.108-10.402-19.521-11.234-9.108-7.385-7.973-9.241-16.22-9.183-26.536.067-11.692 9.324-18.627-1.005-11.54 4.937-11.267 11.129-16.581 16.9-19.786 10.36-5.753 24.864-6.197 35.454 5.538z" fill="#a2400f"/><path d="M64.153 68.521c-.199.313-19.746.624-19.962.933-6.14 8.759-19.403 12.595-29.951 14.953-10.497 2.348-10.903 15.68-10.919 24.56h102.325c-.017-8.88-.211-22.165-10.919-24.56-10.709-2.395-24.75-6.729-30.574-15.886z" fill="#ffdecc"/><path d="M64.735 49.817v25.117c-5.639 7.411-14.864 7.155-20.503 0V49.817c0-13.561 20.503-13.561 20.503 0z" fill="#ffdecc"/><path d="M64.735 49.817v16.816c-3.879 3.035-7.618 4.735-10.251 4.735s-6.372-1.7-10.252-4.735V49.817c0-13.561 20.503-13.561 20.503 0z" fill="#f7c5aa"/><path d="M54.484 67.192c-6.675 0-20.775-10.495-25.135-25.524-4.401-15.177 3.888-36.945 25.135-36.945S84.02 26.491 79.618 41.667c-4.359 15.031-18.459 25.525-25.134 25.525z" fill="#ffdecc"/><path d="M43.844 51.8c4.501-3.293 9.199-1.345 10.77-1.345 1.571 0 6.01-1.948 10.512 1.345-2.241 9.053-17.893 9.282-21.282 0z" fill="#ff386a"/><path d="M43.978 51.752c4.179-1.474 7.872 1.412 10.501 1.412 2.629 0 6.332-3.875 10.511-1.265-4.896 4.991-16.082 4.721-21.012-.147z" fill="#a31f40"/><path d="M43.843 51.752c4.502-1.857 7.814-.511 10.443-.511s6.337-1.346 10.839.511c-4.897 2.796-16.352 2.702-21.282 0z" fill="#fff"/><path d="M43.865 51.768c4.481-3.25 8.328-.995 10.952-.995 2.625 0 5.784-2.267 10.286 1.026-.016.046-.035.091-.052.136-5.739-.102-15.131-.161-21.186-.167z" fill="#ff386a"/><ellipse transform="scale(-1) rotate(66.76 63.07 -40.606)" cx="26.755" cy="41.558" rx="7.317" ry="4.231" fill="#ffdecc"/><ellipse transform="rotate(-66.758 80.232 41.56)" cx="80.228" cy="41.558" rx="7.316" ry="4.232" fill="#ffdecc"/><path d="M77.477 44.124s-1.838-17.134-6.002-22.858c-3.607 5.325-13.136 8.244-23.526 6.742 17.841-8.418-4.441 1.021-8.589-2.88-3.953 2.089-5.9 12.826-7.793 19.301-6.641-11.558-3.833-25.479.748-32.066C41.153-.349 60.087-3.164 73.016 8.394c8.973 8.021 11.844 25.331 4.461 35.73z" fill="#a2400f"/><path d="M44.191 69.454c-4.905 5.043-17.752 19.339-18.977 39.513h16.339c-1.567-9.778-1.259-22.624 2.638-39.513zm40.016 39.513c-1.225-20.174-14.071-34.47-18.977-39.513 3.897 16.889 4.205 29.735 2.638 39.513h16.339z" fill="#68c497"/><g fill="#f7c5aa"><path d="M21.63 108.968c.063-2.012.246-4.435.732-7.387-.907 2.879-1.549 5.288-2.002 7.387h1.27zM87.338 108.968a55.284 55.284 0 0 0-.731-7.387c.907 2.879 1.549 5.288 2.002 7.387h-1.271z"/></g></g></svg>