<svg xmlns="http://www.w3.org/2000/svg" viewBox="0 0 464 464"><path d="M153.444 344a8.06 8.06 0 0 1-1.444-.141V456a8 8 0 0 0 16 0V343.859a8.051 8.051 0 0 1-1.444.141h-13.112z" fill="#ffe6d2"/><path d="M237.793 48c6.165 0 12.188.637 18.021 1.841a51.873 51.873 0 0 0-10.818-6.099c-4.082-1.688-6.027-6.367-4.34-10.449 1.684-4.082 6.367-6.008 10.449-4.34 6.492 2.684 12.574 6.402 18.078 11.059 3.375 2.855 3.797 7.902.945 11.273a7.96 7.96 0 0 1-2.372 1.898c13.796 4.927 26.157 13.163 36.243 23.815a96.127 96.127 0 0 1 10.935-9.9C302.286 28.06 267.341 0 226.207 0 200.362 0 176.965 11.082 160 28.999 143.035 11.082 119.638 0 93.793 0a88.98 88.98 0 0 1 19.151 2.09c-78.919 55.07-27.461 214.515 41.578 295.661a9.412 9.412 0 0 1 5.475-1.75h.006a9.438 9.438 0 0 1 7.732 4.024c12.618-6.755 25.376-14.924 37.858-24.194C169.748 236.151 144 189.422 144 147.385 144 92.496 185.992 48 237.793 48zM136.766 59a7.974 7.974 0 0 1-5.809-2.5c-4.328-4.566-9.242-8.277-14.602-11.023-3.934-2.016-5.484-6.836-3.473-10.77 2.02-3.934 6.848-5.484 10.77-3.473 6.977 3.578 13.344 8.375 18.922 14.266a7.996 7.996 0 0 1-.309 11.309A7.97 7.97 0 0 1 136.766 59z" fill="#ffd76e"/><path d="M142.574 45.5c-5.578-5.891-11.945-10.688-18.922-14.266-3.922-2.012-8.75-.461-10.77 3.473a8.004 8.004 0 0 0 3.473 10.77c5.359 2.746 10.273 6.457 14.602 11.023a7.97 7.97 0 0 0 5.809 2.5 7.973 7.973 0 0 0 5.5-2.191 7.996 7.996 0 0 0 .308-11.309zM270.129 51.285c2.852-3.371 2.43-8.418-.945-11.273-5.504-4.656-11.586-8.375-18.078-11.059-4.082-1.668-8.766.258-10.449 4.34-1.688 4.082.258 8.762 4.34 10.449a51.828 51.828 0 0 1 10.818 6.099 88.954 88.954 0 0 1 11.943 3.342 7.969 7.969 0 0 0 2.371-1.898z" fill="#fff"/><path d="M160.003 296h-.006a9.421 9.421 0 0 0-5.475 1.75C85.483 216.604 34.025 57.159 112.944 2.09A88.98 88.98 0 0 0 93.793 0C41.992 0 0 44.496 0 99.385c0 73.426 78.535 161.17 152.265 200.639a9.398 9.398 0 0 0-1.58 3.864l-5.133 30.797c-.731 4.387 2.244 8.409 6.447 9.174.468.085.948.141 1.444.141h13.113a8.06 8.06 0 0 0 1.444-.141c4.204-.765 7.179-4.787 6.447-9.174l-5.133-30.797a9.435 9.435 0 0 0-9.311-7.888z" fill="#ffc26e"/><path d="M297.444 392a8.06 8.06 0 0 1-1.444-.141V456a8 8 0 0 0 16 0v-64.141a8.051 8.051 0 0 1-1.444.141h-13.112z" fill="#ffe6d2"/><path d="M464 147.385C464 92.496 422.007 48 370.207 48c-20.67 0-39.771 7.094-55.272 19.098a96.042 96.042 0 0 0-10.935 9.9c-10.086-10.652-22.447-18.888-36.243-23.815a88.806 88.806 0 0 0-11.943-3.342A89.044 89.044 0 0 0 237.793 48a88.98 88.98 0 0 1 19.151 2.09c-78.919 55.07-27.461 214.515 41.578 295.661a9.412 9.412 0 0 1 5.475-1.75h.006a9.438 9.438 0 0 1 7.732 4.024C385.465 308.555 464 220.811 464 147.385zM256.883 82.707c2.02-3.934 6.848-5.484 10.77-3.473 6.977 3.578 13.344 8.375 18.922 14.266a7.996 7.996 0 0 1-.309 11.309 7.969 7.969 0 0 1-5.5 2.191 7.974 7.974 0 0 1-5.809-2.5c-4.328-4.566-9.242-8.277-14.602-11.023a8.004 8.004 0 0 1-3.472-10.77zm166.754 29.902c4.102-1.672 8.766.285 10.434 4.371 3.934 9.609 5.93 19.836 5.93 30.402 0 19.434-6.816 41.168-20.254 64.602a8 8 0 0 1-6.949 4.02 7.96 7.96 0 0 1-3.973-1.059 8.007 8.007 0 0 1-2.961-10.922C417.73 183.34 424 163.754 424 147.383c0-8.477-1.594-16.664-4.734-24.34a7.995 7.995 0 0 1 4.371-10.434zm-38.981-31.316c1.684-4.082 6.367-6.008 10.449-4.34 6.492 2.684 12.574 6.402 18.078 11.059 3.375 2.855 3.797 7.902.945 11.273a7.985 7.985 0 0 1-6.113 2.836 7.963 7.963 0 0 1-5.16-1.891c-4.238-3.586-8.902-6.441-13.859-8.488a8.003 8.003 0 0 1-4.34-10.449z" fill="#e86464"/><path d="M424 147.383c0 16.371-6.27 35.957-18.137 56.641a8.007 8.007 0 0 0 2.961 10.922 7.96 7.96 0 0 0 3.973 1.059 7.998 7.998 0 0 0 6.949-4.02C433.184 188.551 440 166.816 440 147.383c0-10.566-1.996-20.793-5.93-30.402-1.668-4.086-6.332-6.043-10.434-4.371a7.995 7.995 0 0 0-4.371 10.434c3.141 7.675 4.735 15.862 4.735 24.339zM260.355 93.477c5.359 2.746 10.273 6.457 14.602 11.023a7.97 7.97 0 0 0 5.809 2.5 7.973 7.973 0 0 0 5.5-2.191 7.996 7.996 0 0 0 .309-11.309c-5.578-5.891-11.945-10.688-18.922-14.266-3.922-2.012-8.75-.461-10.77 3.473a8.004 8.004 0 0 0 3.472 10.77z" fill="#ff8c87"/><path d="M408.016 102.121a7.985 7.985 0 0 0 6.113-2.836c2.852-3.371 2.43-8.418-.945-11.273-5.504-4.656-11.586-8.375-18.078-11.059-4.082-1.668-8.766.258-10.449 4.34-1.688 4.082.258 8.762 4.34 10.449 4.957 2.047 9.621 4.902 13.859 8.488a7.959 7.959 0 0 0 5.16 1.891z" fill="#ffbeaf"/><path d="M304.003 344h-.006a9.421 9.421 0 0 0-5.475 1.75c-69.04-81.146-120.498-240.591-41.578-295.661A89.042 89.042 0 0 0 237.793 48C185.992 48 144 92.496 144 147.385c0 42.038 25.748 88.766 61.593 128.446 26.764 29.627 59.154 55.321 90.673 72.194a9.398 9.398 0 0 0-1.58 3.864l-5.133 30.797c-.731 4.387 2.244 8.409 6.447 9.174.468.085.948.141 1.444.141h13.113a8.06 8.06 0 0 0 1.444-.141c4.204-.765 7.179-4.787 6.447-9.174l-5.133-30.797a9.437 9.437 0 0 0-9.312-7.889z" fill="#d2464b"/></svg>