<svg xmlns="http://www.w3.org/2000/svg" viewBox="0 0 512 512"><path d="M400 512H112c-13.255 0-24-10.745-24-24V24c0-13.255 10.745-24 24-24h288c13.255 0 24 10.745 24 24v464c0 13.255-10.745 24-24 24z" fill="#5c546a"/><path d="M112 512h288c13.255 0 24-10.745 24-24V192H88v296c0 13.255 10.745 24 24 24z" fill="#8b8996"/><path d="M376 48H136a8 8 0 0 0-8 8v80a8 8 0 0 0 8 8h240a8 8 0 0 0 8-8V56a8 8 0 0 0-8-8z" fill="#00e68c"/><path d="M280 120c-4.422 0-8-3.578-8-8V80c0-4.422 3.578-8 8-8 4.422 0 8 3.578 8 8v32c0 4.422-3.578 8-8 8zM312 120c-4.422 0-8-3.578-8-8V80c0-4.422 3.578-8 8-8s8 3.578 8 8v32c0 4.422-3.578 8-8 8zM344 120c-4.422 0-8-3.578-8-8V80c0-4.422 3.578-8 8-8 4.422 0 8 3.578 8 8v32c0 4.422-3.578 8-8 8zM280 304h-48a8 8 0 0 1-8-8v-48a8 8 0 0 1 8-8h48a8 8 0 0 1 8 8v48a8 8 0 0 1-8 8zM200 304h-48a8 8 0 0 1-8-8v-48a8 8 0 0 1 8-8h48a8 8 0 0 1 8 8v48a8 8 0 0 1-8 8zM360 304h-48a8 8 0 0 1-8-8v-48a8 8 0 0 1 8-8h48a8 8 0 0 1 8 8v48a8 8 0 0 1-8 8zM280 384h-48a8 8 0 0 1-8-8v-48a8 8 0 0 1 8-8h48a8 8 0 0 1 8 8v48a8 8 0 0 1-8 8zM200 384h-48a8 8 0 0 1-8-8v-48a8 8 0 0 1 8-8h48a8 8 0 0 1 8 8v48a8 8 0 0 1-8 8zM360 384h-48a8 8 0 0 1-8-8v-48a8 8 0 0 1 8-8h48a8 8 0 0 1 8 8v48a8 8 0 0 1-8 8zM280 464h-48a8 8 0 0 1-8-8v-48a8 8 0 0 1 8-8h48a8 8 0 0 1 8 8v48a8 8 0 0 1-8 8zM200 464h-48a8 8 0 0 1-8-8v-48a8 8 0 0 1 8-8h48a8 8 0 0 1 8 8v48a8 8 0 0 1-8 8zM360 464h-48a8 8 0 0 1-8-8v-48a8 8 0 0 1 8-8h48a8 8 0 0 1 8 8v48a8 8 0 0 1-8 8z" fill="#5c546a"/></svg>