<svg xmlns="http://www.w3.org/2000/svg" viewBox="0 0 139.01 139.01"><g fill-rule="evenodd" clip-rule="evenodd"><g fill="#4d1b02"><path d="M88.131 26.066c5.533 0 10.046-4.513 10.046-10.046 0-5.532-4.513-10.045-10.046-10.045-5.532 0-10.045 4.513-10.045 10.045 0 5.534 4.513 10.046 10.045 10.046z"/><path d="M78.259 21.649c5.533 0 10.045-4.513 10.045-10.045 0-5.533-4.512-10.046-10.045-10.046S68.214 6.071 68.214 11.604c0 5.533 4.512 10.045 10.045 10.045z"/><path d="M63.19 20.091c5.533 0 10.045-4.513 10.045-10.046C73.235 4.513 68.724 0 63.19 0c-5.533 0-10.045 4.513-10.045 10.045.001 5.533 4.512 10.046 10.045 10.046z"/><path d="M49.681 25.027c5.533 0 10.046-4.513 10.046-10.046 0-5.533-4.513-10.045-10.046-10.045-5.532 0-10.045 4.512-10.045 10.045 0 5.534 4.512 10.046 10.045 10.046z"/><path d="M41.887 36.198c5.533 0 10.046-4.512 10.046-10.045S47.42 16.108 41.887 16.108c-5.532 0-10.046 4.513-10.046 10.046s4.513 10.044 10.046 10.044zm54.817.26c5.533 0 10.045-4.512 10.045-10.045s-4.512-10.046-10.045-10.046-10.045 4.513-10.045 10.046c0 5.533 4.512 10.045 10.045 10.045z"/><path d="M97.224 50.487c5.533 0 10.045-4.513 10.045-10.046 0-5.532-4.512-10.045-10.045-10.045s-10.045 4.513-10.045 10.045c0 5.534 4.511 10.046 10.045 10.046z"/><path d="M89.949 67.374c5.533 0 10.046-4.513 10.046-10.045 0-5.533-4.513-10.046-10.046-10.046-5.532 0-10.045 4.513-10.045 10.046 0 5.532 4.513 10.045 10.045 10.045zM41.107 48.929c5.533 0 10.046-4.513 10.046-10.045 0-5.533-4.513-10.046-10.046-10.046-5.533 0-10.046 4.513-10.046 10.046.001 5.532 4.513 10.045 10.046 10.045zm7.275 19.745c5.533 0 10.045-4.513 10.045-10.046s-4.512-10.045-10.045-10.045-10.045 4.512-10.045 10.045 4.512 10.046 10.045 10.046z"/><path d="M95.781 60.084c5.533 0 10.046-4.512 10.046-10.045s-4.513-10.045-10.046-10.045c-5.532 0-10.045 4.512-10.045 10.045s4.513 10.045 10.045 10.045zm-53.216-.706c5.533 0 10.045-4.513 10.045-10.046s-4.512-10.045-10.045-10.045-10.046 4.512-10.046 10.045 4.513 10.046 10.046 10.046z"/></g><path d="M57.767 85.725c-25.952 11.377-33.736 17.442-36.815 20.166-4.742 4.196-7.365 19.838-10.162 33.119h117.43c-2.798-13.281-5.421-28.923-10.163-33.119-3.077-2.724-10.577-8.633-36.528-20.011l-23.762-.155z" fill="#e6a875"/><path d="M82.105 63.046v28.767c-6.931 8.488-18.27 8.194-25.201 0V63.046c0-15.533 25.201-15.533 25.201 0z" fill="#e6a875"/><path d="M82.105 63.046v19.26c-4.769 3.476-9.364 5.423-12.601 5.423-3.236 0-7.833-1.947-12.601-5.423v-19.26c.001-15.533 25.202-15.533 25.202 0z" fill="#b88053"/><path d="M69.505 11.399c-42.292 0-27.083 51.102-24.32 55.169 3.046 4.486 17.487 16.376 24.32 16.376 6.832 0 21.274-11.89 24.32-16.376 2.763-4.067 17.971-55.169-24.32-55.169z" fill="#e6a875"/><ellipse transform="rotate(-108.223 39.594 51.412)" cx="39.592" cy="51.41" rx="7.317" ry="4.231" fill="#e6a875"/><ellipse transform="rotate(-71.772 99.904 51.411)" cx="99.902" cy="51.41" rx="7.317" ry="4.231" fill="#e6a875"/><g fill="#4d1b02"><path d="M66.048 28.664c5.533 0 10.046-4.512 10.046-10.045S71.581 8.573 66.048 8.573c-5.532 0-10.045 4.513-10.045 10.046s4.513 10.045 10.045 10.045z"/><path d="M79.817 28.145c5.533 0 10.046-4.513 10.046-10.045 0-5.533-4.513-10.046-10.046-10.046-5.533 0-10.045 4.513-10.045 10.046 0 5.532 4.512 10.045 10.045 10.045zm-23.901 3.637c5.533 0 10.046-4.513 10.046-10.046s-4.513-10.045-10.046-10.045-10.045 4.512-10.045 10.045 4.512 10.046 10.045 10.046z"/><path d="M48.44 35.276c4.707 0 8.545-3.839 8.545-8.545 0-4.707-3.838-8.545-8.545-8.545s-8.545 3.838-8.545 8.545c.001 4.707 3.838 8.545 8.545 8.545zm39.431-.896c5.533 0 10.046-4.512 10.046-10.045s-4.513-10.046-10.046-10.046-10.046 4.513-10.046 10.046S82.338 34.38 87.871 34.38z"/><path d="M96.026 41.191c3.903 0 7.086-3.183 7.086-7.086 0-3.903-3.183-7.086-7.086-7.086-3.902 0-7.086 3.183-7.086 7.086 0 3.903 3.184 7.086 7.086 7.086zm-52.132 1.36c3.777 0 6.857-3.08 6.857-6.856s-3.08-6.857-6.857-6.857c-3.776 0-6.856 3.08-6.856 6.857-.001 3.776 3.079 6.856 6.856 6.856z"/><path d="M42.465 47.228a4.398 4.398 0 0 0 4.389-4.389c0-2.418-1.972-4.389-4.389-4.389s-4.389 1.971-4.389 4.389a4.398 4.398 0 0 0 4.389 4.389zm54.817.519c2.417 0 4.389-1.972 4.389-4.389s-1.972-4.389-4.389-4.389-4.389 1.972-4.389 4.389 1.972 4.389 4.389 4.389z"/><path d="M42.984 51.124a3.096 3.096 0 0 0 3.09-3.09 3.096 3.096 0 0 0-3.09-3.089 3.095 3.095 0 0 0-3.089 3.089 3.096 3.096 0 0 0 3.089 3.09zm53.779-.26a3.096 3.096 0 0 0 3.09-3.09 3.096 3.096 0 0 0-3.09-3.089 3.095 3.095 0 0 0-3.089 3.089 3.095 3.095 0 0 0 3.089 3.09z"/></g><path d="M55.945 62.098c3.548 2.783 23.571 2.63 27.119 0-3.083 14.644-23.03 15.094-27.119 0zm.959 24.006c-25.261 11.133-32.909 17.095-35.952 19.787-4.742 4.196-7.365 19.838-10.162 33.119h117.43c-2.798-13.281-5.421-28.923-10.163-33.119-3.054-2.703-10.468-8.545-35.951-19.756-5.015 6.793-18.699 7.906-25.202-.031z" fill="#fff"/><path d="M53.664 87.547c-22.685 10.209-29.803 15.77-32.712 18.344-4.742 4.196-7.365 19.838-10.162 33.119h117.43c-2.798-13.281-5.421-28.923-10.163-33.119-2.894-2.562-9.704-7.941-32.089-18.036-10.014 10.564-28.792 7.196-32.304-.308z" fill="#68c497"/><path d="M34.718 139.01h2.012c-.09-8.941-.091-15.386-.091-15.386s-.891 6.697-1.921 15.386zm69.574 0h-2.012c.09-8.941.09-15.386.09-15.386s.891 6.697 1.922 15.386z" fill="#388761"/></g></svg>