<svg xmlns="http://www.w3.org/2000/svg" viewBox="0 0 512 512"><path d="M208.016 478.357c-5.695 0-11.406-1.371-16.695-4.137l-91.703-47.938C85.055 418.67 76 403.728 76 387.291v-44.039c0-6.629 5.375-12 12-12s12 5.371 12 12v44.039a19.944 19.944 0 0 0 10.734 17.723l91.711 47.941c5.406 2.82 10.039.668 11.773-.371 1.734-1.055 5.781-4.164 5.781-10.266v-27.066c0-6.629 5.375-12 12-12s12 5.371 12 12v27.066c0 12.703-6.484 24.211-17.352 30.793-5.764 3.492-12.186 5.246-18.631 5.246z" fill="#5c546a"/><path d="M356.437 37.139c-7.25-4.391-16.055-4.656-23.555-.738L8.594 205.916A15.937 15.937 0 0 0 0 220.096v70.309c0 5.98 3.289 11.414 8.594 14.18l324.289 169.519c3.523 1.84 7.328 2.758 11.125 2.758 4.297 0 8.586-1.172 12.43-3.504C363.68 468.974 368 461.299 368 452.834V57.67c0-8.469-4.32-16.145-11.563-20.531z" fill="#b9bbc1"/><path d="M0 257.646v32.758c0 5.98 3.289 11.414 8.594 14.18l324.289 169.519c3.523 1.84 7.328 2.758 11.125 2.758 4.297 0 8.586-1.172 12.43-3.504C363.68 468.974 368 461.299 368 452.834V257.646H0z" fill="#8b8996"/><path d="M405.258 308.506a7.97 7.97 0 0 1-5.656-2.344 7.996 7.996 0 0 1 0-11.312c21.828-21.836 21.828-57.363 0-79.199-3.125-3.125-3.125-8.191 0-11.312a7.996 7.996 0 0 1 11.312 0c28.07 28.074 28.07 73.75 0 101.824a7.977 7.977 0 0 1-5.656 2.343z" fill="#b9bbc1"/><path d="M433.539 336.791a7.97 7.97 0 0 1-5.656-2.344 7.996 7.996 0 0 1 0-11.312C446.015 305.002 456 280.893 456 255.252c0-25.645-9.984-49.75-28.117-67.883-3.125-3.125-3.125-8.188 0-11.312s8.188-3.125 11.312 0C460.351 197.209 472 225.334 472 255.252c0 29.914-11.648 58.039-32.805 79.195a7.97 7.97 0 0 1-5.656 2.344z" fill="#b9bbc1"/><path d="M461.82 365.072a7.97 7.97 0 0 1-5.656-2.344c-3.125-3.125-3.125-8.191 0-11.312C481.851 325.728 496 291.576 496 255.248c0-36.324-14.148-70.477-39.836-96.164-3.125-3.121-3.125-8.187 0-11.312s8.188-3.125 11.312 0C496.187 176.479 512 214.65 512 255.248c0 40.602-15.812 78.773-44.523 107.48a7.975 7.975 0 0 1-5.657 2.344z" fill="#b9bbc1"/></svg>