<svg xmlns="http://www.w3.org/2000/svg" viewBox="0 0 511.328 511.328"><path d="M327.305 4.563C323.219.36 316.961-1.015 309.696.907c-.32.102-32.687 10.437-43.445 13.523-6.898 1.977-19.031 2.008-25.977.023C229.407 11.359 196.704.976 195.977.758c-6.844-1.773-13.102-.406-17.203 3.789-4.086 4.195-5.312 10.5-3.273 17.547l24.555 75.703a8 8 0 0 0 7.609 5.531h96a7.99 7.99 0 0 0 7.75-6.023l19.234-75.461c1.96-6.789.742-13.094-3.344-17.281z" fill="#9f6459"/><path d="M255.664 15.862c-5.518.202-11.335-.25-15.391-1.408C229.406 11.36 196.703.977 195.976.759c-6.844-1.773-13.102-.406-17.203 3.789-4.086 4.195-5.312 10.5-3.273 17.547l24.555 75.703a8 8 0 0 0 7.609 5.531h48V15.862z" fill="#7e5c62"/><path d="M352.102 177.188c-21.695-19.336-40.437-36.031-40.437-49.859 0-4.422-3.578-8-8-8h-96c-4.422 0-8 3.578-8 8 0 13.828-18.742 30.523-40.437 49.859-43.711 38.93-103.562 92.258-103.562 190.141 0 69.352 52.57 144 168 144h64c115.43 0 168-74.648 168-144-.002-97.883-59.853-151.211-103.564-190.141z" fill="#9f6459"/><path d="M255.664 119.329h-48c-4.422 0-8 3.578-8 8 0 13.828-18.742 30.523-40.437 49.859-43.711 38.93-103.562 92.258-103.562 190.141 0 69.352 52.57 144 168 144h32v-392z" fill="#7e5c62"/><circle cx="255.664" cy="335.327" r="120" fill="#869b55"/><path d="M375.664 335.327c0-66.274-53.726-120-120-120v240c66.275 0 120-53.726 120-120z" fill="#74d24f"/><path d="M319.664 111.327c0 8.8-7.2 16-16 16h-96c-8.8 0-16-7.2-16-16s7.2-16 16-16h96c8.8 0 16 7.2 16 16z" fill="#869b55"/><path d="M255.664 323.328c-16.023 0-28-8.445-28-16s11.977-16 28-16 28 8.445 28 16c0 6.625 5.375 12 12 12s12-5.375 12-12c0-19.236-16.824-34.862-40-38.932v-5.068c0-6.625-5.375-12-12-12s-12 5.375-12 12v5.068c-23.176 4.07-40 19.695-40 38.932 0 22.43 22.844 40 52 40 16.023 0 28 8.445 28 16s-11.977 16-28 16-28-8.445-28-16c0-6.625-5.375-12-12-12s-12 5.375-12 12c0 19.236 16.824 34.862 40 38.932v5.068c0 6.625 5.375 12 12 12s12-5.375 12-12v-5.068c23.176-4.07 40-19.695 40-38.932 0-22.429-22.844-40-52-40z" fill="#ffefbc"/><path d="M303.664 95.327h-48v32h48c8.8 0 16-7.2 16-16s-7.2-16-16-16z" fill="#74d24f"/></svg>