<svg xmlns="http://www.w3.org/2000/svg" viewBox="0 0 496 496"><path d="M481.656 226.344l-40-40A7.994 7.994 0 0 0 436 184H244c-4.422 0-8 3.582-8 8v80c0 4.418 3.578 8 8 8h192a7.994 7.994 0 0 0 5.656-2.344l40-40a7.996 7.996 0 0 0 0-11.312z" fill="#ff9600"/><path d="M212 104H60a7.994 7.994 0 0 0-5.656 2.344l-40 40a7.996 7.996 0 0 0 0 11.312l40 40A7.994 7.994 0 0 0 60 200h152c4.422 0 8-3.582 8-8v-80c0-4.418-3.578-8-8-8z" fill="#ffd200"/><path d="M425.656 66.344l-40-40A7.994 7.994 0 0 0 380 24H244c-4.422 0-8 3.582-8 8v80c0 4.418 3.578 8 8 8h136a7.994 7.994 0 0 0 5.656-2.344l40-40a7.996 7.996 0 0 0 0-11.312z" fill="#ffef43"/><path d="M244 496h-32V16c0-8.837 7.163-16 16-16s16 7.163 16 16v480z" fill="#7e5c62"/><path d="M372 80h-48c-4.422 0-8-3.582-8-8s3.578-8 8-8h48c4.422 0 8 3.582 8 8s-3.578 8-8 8zm-80 0h-8c-4.422 0-8-3.582-8-8s3.578-8 8-8h8c4.422 0 8 3.582 8 8s-3.578 8-8 8z" fill="#fff"/><path d="M428 240h-32c-4.422 0-8-3.582-8-8s3.578-8 8-8h32c4.422 0 8 3.582 8 8s-3.578 8-8 8zm-64 0h-80c-4.422 0-8-3.582-8-8s3.578-8 8-8h80c4.422 0 8 3.582 8 8s-3.578 8-8 8z" fill="#ffd200"/><path d="M172 160h-32c-4.422 0-8-3.582-8-8s3.578-8 8-8h32c4.422 0 8 3.582 8 8s-3.578 8-8 8zm-64 0H76c-4.422 0-8-3.582-8-8s3.578-8 8-8h32c4.422 0 8 3.582 8 8s-3.578 8-8 8z" fill="#ffefbc"/></svg>