<?xml version="1.0" encoding="iso-8859-1"?>
<!-- Generator: Adobe Illustrator 18.0.0, SVG Export Plug-In . SVG Version: 6.00 Build 0)  -->
<!DOCTYPE svg PUBLIC "-//W3C//DTD SVG 1.1//EN" "http://www.w3.org/Graphics/SVG/1.1/DTD/svg11.dtd">
<svg version="1.1" id="Capa_1" xmlns="http://www.w3.org/2000/svg" xmlns:xlink="http://www.w3.org/1999/xlink" x="0px" y="0px"
	 viewBox="0 0 108.968 108.968" style="enable-background:new 0 0 108.968 108.968;" xml:space="preserve">
<g>
	<path style="fill-rule:evenodd;clip-rule:evenodd;fill:#A2400F;" d="M75.253,9.469c2.172-1.014,7.664,4.576,9.875,13.609
		c-6.658-3.964-1.187,0.089-0.968,12.613c0.234,13.454-2.22,17.916-6.258,22.978c-2.331-10.08-5.703,7.151-13.484,11.932
		c-7.815,4.799-13.295,4.138-20.097,0.3c-7.284-4.108-10.402-19.521-11.234-9.108c-7.385-7.973-9.241-16.22-9.183-26.536
		c0.067-11.692,9.324-18.627-1.005-11.54C27.836,12.45,34.028,7.136,39.799,3.931C50.159-1.822,64.663-2.266,75.253,9.469z"/>
	<path style="fill-rule:evenodd;clip-rule:evenodd;fill:#FFDECC;" d="M64.153,68.521c-0.199,0.313-19.746,0.624-19.962,0.933
		c-6.14,8.759-19.403,12.595-29.951,14.953c-10.497,2.348-10.903,15.68-10.919,24.56h102.325c-0.017-8.88-0.211-22.165-10.919-24.56
		C84.018,82.012,69.977,77.678,64.153,68.521z"/>
	<path style="fill-rule:evenodd;clip-rule:evenodd;fill:#FFDECC;" d="M64.735,49.817v25.117c-5.639,7.411-14.864,7.155-20.503,0
		V49.817C44.232,36.256,64.735,36.256,64.735,49.817z"/>
	<path style="fill-rule:evenodd;clip-rule:evenodd;fill:#F7C5AA;" d="M64.735,49.817v16.816c-3.879,3.035-7.618,4.735-10.251,4.735
		s-6.372-1.7-10.252-4.735V49.817C44.232,36.256,64.735,36.256,64.735,49.817z"/>
	<path style="fill-rule:evenodd;clip-rule:evenodd;fill:#FFDECC;" d="M54.484,67.192c-6.675,0-20.775-10.495-25.135-25.524
		C24.948,26.491,33.237,4.723,54.484,4.723c21.247,0,29.536,21.768,25.134,36.944C75.259,56.698,61.159,67.192,54.484,67.192z"/>
	<path style="fill-rule:evenodd;clip-rule:evenodd;fill:#FF386A;" d="M43.844,51.8c4.501-3.293,9.199-1.345,10.77-1.345
		c1.571,0,6.01-1.948,10.512,1.345C62.885,60.853,47.233,61.082,43.844,51.8z"/>
	<path style="fill-rule:evenodd;clip-rule:evenodd;fill:#A31F40;" d="M43.978,51.752c4.179-1.474,7.872,1.412,10.501,1.412
		c2.629,0,6.332-3.875,10.511-1.265C60.094,56.89,48.908,56.62,43.978,51.752z"/>
	<path style="fill-rule:evenodd;clip-rule:evenodd;fill:#FFFFFF;" d="M43.843,51.752c4.502-1.857,7.814-0.511,10.443-0.511
		s6.337-1.346,10.839,0.511C60.228,54.548,48.773,54.454,43.843,51.752z"/>
	<path style="fill-rule:evenodd;clip-rule:evenodd;fill:#FF386A;" d="M43.865,51.768c4.481-3.25,8.328-0.995,10.952-0.995
		c2.625,0,5.784-2.267,10.286,1.026c-0.016,0.046-0.035,0.091-0.052,0.136C59.312,51.833,49.92,51.774,43.865,51.768z"/>
	
		<ellipse transform="matrix(-0.3946 -0.9189 0.9189 -0.3946 -0.8729 82.5406)" style="fill-rule:evenodd;clip-rule:evenodd;fill:#FFDECC;" cx="26.755" cy="41.558" rx="7.317" ry="4.231"/>
	
		<ellipse transform="matrix(0.3946 -0.9188 0.9188 0.3946 10.3827 98.8755)" style="fill-rule:evenodd;clip-rule:evenodd;fill:#FFDECC;" cx="80.228" cy="41.558" rx="7.316" ry="4.232"/>
	<path style="fill-rule:evenodd;clip-rule:evenodd;fill:#A2400F;" d="M77.477,44.124c0,0-1.838-17.134-6.002-22.858
		c-3.607,5.325-13.136,8.244-23.526,6.742c17.841-8.418-4.441,1.021-8.589-2.88c-3.953,2.089-5.9,12.826-7.793,19.301
		c-6.641-11.558-3.833-25.479,0.748-32.066C41.153-0.349,60.087-3.164,73.016,8.394C81.989,16.415,84.86,33.725,77.477,44.124z"/>
	<path style="fill-rule:evenodd;clip-rule:evenodd;fill:#68C497;" d="M44.191,69.454c-4.905,5.043-17.752,19.339-18.977,39.513
		h16.339C39.986,99.189,40.294,86.343,44.191,69.454L44.191,69.454z M84.207,108.967c-1.225-20.174-14.071-34.47-18.977-39.513
		c3.897,16.889,4.205,29.735,2.638,39.513H84.207z"/>
	<g>
		<path style="fill-rule:evenodd;clip-rule:evenodd;fill:#F7C5AA;" d="M21.63,108.968c0.063-2.012,0.246-4.435,0.732-7.387
			c-0.907,2.879-1.549,5.288-2.002,7.387H21.63z"/>
		<path style="fill-rule:evenodd;clip-rule:evenodd;fill:#F7C5AA;" d="M87.338,108.968c-0.062-2.012-0.245-4.435-0.731-7.387
			c0.907,2.879,1.549,5.288,2.002,7.387H87.338z"/>
	</g>
</g>
<g>
</g>
<g>
</g>
<g>
</g>
<g>
</g>
<g>
</g>
<g>
</g>
<g>
</g>
<g>
</g>
<g>
</g>
<g>
</g>
<g>
</g>
<g>
</g>
<g>
</g>
<g>
</g>
<g>
</g>
</svg>
